<?xml version="1.0" encoding="UTF-8"?>
<svg version="1.1" xmlns="http://www.w3.org/2000/svg" width="225" height="225">
<path d="M0 0 C74.25 0 148.5 0 225 0 C225 74.25 225 148.5 225 225 C150.75 225 76.5 225 0 225 C0 150.75 0 76.5 0 0 Z " fill="#FEFEFF" transform="translate(0,0)"/>
<path d="M0 0 C4.59110079 3.28223434 8.67818013 6.92999932 12.671875 10.91015625 C13.37054688 11.585625 14.06921875 12.26109375 14.7890625 12.95703125 C28.85407539 27.51459323 34.48459332 47.66735575 34.19360352 67.50170898 C32.18808907 119.56777456 -0.12447085 168.76960875 -34.5234375 205.89453125 C-36.25184256 207.82495768 -37.80767148 209.81363028 -39.328125 211.91015625 C-42.78692349 211.34240531 -44.18263227 210.3481474 -46.390625 207.66015625 C-46.9990625 206.92925781 -47.6075 206.19835937 -48.234375 205.4453125 C-48.9253125 204.60871094 -49.61625 203.77210938 -50.328125 202.91015625 C-51.1221875 202.00136719 -51.91625 201.09257812 -52.734375 200.15625 C-65.79547971 185.19213791 -77.16039606 168.95595259 -87.328125 151.91015625 C-88.03364502 150.73380615 -88.03364502 150.73380615 -88.75341797 149.53369141 C-106.42334767 119.73817654 -122.20785668 80.74753267 -113.828125 45.53515625 C-110.3646083 33.6025457 -104.71761183 22.14398116 -96.328125 12.91015625 C-95.67457031 12.16507813 -95.02101563 11.42 -94.34765625 10.65234375 C-70.05267158 -15.45702047 -29.52250317 -18.55350683 0 0 Z " fill="#0000FF" transform="translate(153.328125,12.08984375)"/>
<path d="M0 0 C6.6611873 4.61077398 11.81950023 10.07090994 14 18 C15.16621624 27.48394033 14.83960807 36.0221516 9 44 C4.0547984 50.20550784 -2.13826769 54.46529719 -10 56 C-20.46253819 56.77721712 -27.0973884 55.68124546 -35.1875 48.9375 C-41.68495443 42.69033272 -45.06601727 37.25548296 -45.58569336 28.09985352 C-45.75331001 19.14537667 -44.00972543 12.53067401 -38.015625 5.7578125 C-27.24343001 -4.67058903 -13.31897003 -7.61698771 0 0 Z " fill="#FCFCFF" transform="translate(128,49)"/>
</svg>
