<?xml version="1.0" encoding="UTF-8"?>
<svg version="1.1" xmlns="http://www.w3.org/2000/svg" width="225" height="225">
<path d="M0 0 C17.54635201 13.37638564 27.8554442 32.34546095 30.90869141 54.03613281 C36.34856273 98.39200667 9.43561445 143.868695 -15.84375 178.0546875 C-16.27397461 178.63798828 -16.70419922 179.22128906 -17.14746094 179.82226562 C-21.89625017 186.22071231 -26.88856672 192.40737623 -32.03125 198.4921875 C-32.50626953 199.0596167 -32.98128906 199.6270459 -33.47070312 200.21166992 C-36.93393038 204.25110654 -40.72237243 207.69464628 -44.84375 211.0546875 C-51.73623001 204.42121509 -57.93245038 197.57908788 -63.84375 190.0546875 C-64.60042969 189.11496094 -65.35710937 188.17523438 -66.13671875 187.20703125 C-90.80852343 156.01510853 -112.89156006 118.92409767 -118.84375 79.0546875 C-118.97265625 78.26964844 -119.1015625 77.48460938 -119.234375 76.67578125 C-119.54414042 74.46258882 -119.72037765 72.28627564 -119.84375 70.0546875 C-119.90820312 68.98347656 -119.97265625 67.91226563 -120.0390625 66.80859375 C-120.74307605 44.63216686 -113.29271587 24.53866125 -98.08984375 8.3359375 C-89.06335125 -0.83183923 -79.02593477 -6.75419389 -66.84375 -10.9453125 C-66.00070313 -11.24566406 -65.15765625 -11.54601562 -64.2890625 -11.85546875 C-41.85965407 -18.68595432 -18.83419679 -12.88383242 0 0 Z M-68.84375 44.0546875 C-73.43423807 50.92234682 -74.64922833 57.95452509 -73.84375 66.0546875 C-71.80978861 74.53921216 -68.50559501 80.81229144 -61.31640625 85.8125 C-53.34100489 90.41575179 -45.92400665 91.46866814 -36.84375 90.0546875 C-28.26049777 87.40222414 -22.28310477 82.86899034 -17.84375 75.0546875 C-14.47807955 68.1538524 -13.59668368 60.94645361 -15.5 53.48046875 C-18.51427779 44.99631618 -23.93105157 38.43192493 -31.84375 34.0546875 C-46.67235397 28.29378525 -58.59450265 32.84400632 -68.84375 44.0546875 Z " fill="#0202FB" transform="translate(156.84375,13.9453125)"/>
<path d="M0 0 C0.33 0 0.66 0 1 0 C0.98839844 1.08796875 0.97679687 2.1759375 0.96484375 3.296875 C0.702896 20.50754262 0.702896 20.50754262 5 37 C5.36950465 39.32787927 5.71352467 41.66045145 6 44 C6.33 44.33 6.66 44.66 7 45 C7.44791674 46.80033632 7.8345994 48.61615395 8.1875 50.4375 C8.48720703 51.92056641 8.48720703 51.92056641 8.79296875 53.43359375 C8.86128906 54.28050781 8.92960937 55.12742188 9 56 C8.34 56.66 7.68 57.32 7 58 C0.93795424 39.50237422 -3.64680298 19.46922238 0 0 Z " fill="#7F7FED" transform="translate(38,63)"/>
<path d="M0 0 C1.35641602 -0.00193359 1.35641602 -0.00193359 2.74023438 -0.00390625 C3.67287109 -0.00003906 4.60550781 0.00382812 5.56640625 0.0078125 C6.49517578 0.00394531 7.42394531 0.00007813 8.38085938 -0.00390625 C13.0766421 0.00277814 17.51120694 0.16147675 22.12890625 1.1328125 C22.12890625 1.7928125 22.12890625 2.4528125 22.12890625 3.1328125 C18.29558926 3.16211231 14.46230154 3.17971147 10.62890625 3.1953125 C9.55125 3.20369141 8.47359375 3.21207031 7.36328125 3.22070312 C1.51562243 3.23853135 -4.08973046 3.02387213 -9.87109375 2.1328125 C-9.87109375 1.8028125 -9.87109375 1.4728125 -9.87109375 1.1328125 C-6.52457411 0.38335286 -3.42728328 0.00474083 0 0 Z " fill="#4C4AE2" transform="translate(106.87109375,-0.1328125)"/>
<path d="M0 0 C1.75 0.0625 1.75 0.0625 4 1 C5.5002624 3.33864434 6.7805567 5.5287388 8 8 C8.61875 9.2065625 8.61875 9.2065625 9.25 10.4375 C9.4975 10.953125 9.745 11.46875 10 12 C10.66 12 11.32 12 12 12 C12 12.66 12 13.32 12 14 C12.66 14 13.32 14 14 14 C14 15.32 14 16.64 14 18 C14.66 18.33 15.32 18.66 16 19 C17.08018452 20.3236458 18.11752925 21.6827031 19.125 23.0625 C19.66382812 23.79597656 20.20265625 24.52945313 20.7578125 25.28515625 C21.16773437 25.85105469 21.57765625 26.41695312 22 27 C21.01 27 20.02 27 19 27 C17.13134183 24.9592683 15.47234204 22.95139946 13.8125 20.75 C13.32998779 20.12262939 12.84747559 19.49525879 12.3503418 18.84887695 C0 2.61951005 0 2.61951005 0 0 Z " fill="#4747E1" transform="translate(75,178)"/>
<path d="M0 0 C1.65 0 3.3 0 5 0 C2.88446611 4.49363846 -0.02144332 8.23599496 -3 12.1875 C-3.5465625 12.92419922 -4.093125 13.66089844 -4.65625 14.41992188 C-5.44515625 15.47083008 -5.44515625 15.47083008 -6.25 16.54296875 C-6.72953125 17.18258545 -7.2090625 17.82220215 -7.703125 18.48120117 C-9 20 -9 20 -11 21 C-10.74438677 18.6568787 -10.40729228 16.32156597 -10 14 C-9.34 13.67 -8.68 13.34 -8 13 C-7.67 12.01 -7.34 11.02 -7 10 C-5.68 10 -4.36 10 -3 10 C-3 8.35 -3 6.7 -3 5 C-1.68 4.67 -0.36 4.34 1 4 C0.67 2.68 0.34 1.36 0 0 Z " fill="#3130E5" transform="translate(140,185)"/>
<path d="M0 0 C0.66 0 1.32 0 2 0 C3.60755485 9.91325492 3.61924683 20.08211317 2 30 C1.67 30 1.34 30 1 30 C0.1367399 26.28111134 -0.11721556 22.85703512 -0.09765625 19.04296875 C-0.09443359 17.93115234 -0.09121094 16.81933594 -0.08789062 15.67382812 C-0.07951172 14.52333984 -0.07113281 13.37285156 -0.0625 12.1875 C-0.05798828 11.01767578 -0.05347656 9.84785156 -0.04882812 8.64257812 C-0.0370693 5.76166642 -0.02063426 2.88085956 0 0 Z " fill="#5958DE" transform="translate(185,63)"/>
<path d="M0 0 C1.64797236 0.71162443 3.31165408 1.39031953 5 2 C5 2.66 5 3.32 5 4 C3.4221875 3.505 3.4221875 3.505 1.8125 3 C-6.75361738 0.869882 -15.62789877 1.37345844 -24 4 C-24 3.34 -24 2.68 -24 2 C-19.13932515 0.19975005 -14.25774831 -1.28462402 -9.1875 -2.375 C-8.29417969 -2.56835938 -7.40085937 -2.76171875 -6.48046875 -2.9609375 C-3.3210951 -3.01069142 -2.3347612 -2.03859699 0 0 Z " fill="#4341E1" transform="translate(122,45)"/>
<path d="M0 0 C0.33 1.32 0.66 2.64 1 4 C0.34 4 -0.32 4 -1 4 C-1 4.66 -1 5.32 -1 6 C-0.34 6.33 0.32 6.66 1 7 C-1.475 8.485 -1.475 8.485 -4 10 C-3.67 10.99 -3.34 11.98 -3 13 C-3.99 13 -4.98 13 -6 13 C-6 14.32 -6 15.64 -6 17 C-7.65 17 -9.3 17 -11 17 C-9.71415249 12.40191701 -7.99307926 9.34199498 -4.9375 5.6875 C-4.22464844 4.82511719 -3.51179688 3.96273438 -2.77734375 3.07421875 C-1.87876325 2.02554568 -0.97651476 0.97651476 0 0 Z " fill="#4343E5" transform="translate(58,23)"/>
<path d="M0 0 C0.66 0.33 1.32 0.66 2 1 C2.1875 3.875 2.1875 3.875 2 7 C1.01 7.66 0.02 8.32 -1 9 C-1.66 8.34 -2.32 7.68 -3 7 C-5.10820797 7.3185177 -5.10820797 7.3185177 -7 8 C-7.103125 8.639375 -7.20625 9.27875 -7.3125 9.9375 C-7.539375 10.618125 -7.76625 11.29875 -8 12 C-8.99 12.33 -9.98 12.66 -11 13 C-11.66 12.34 -12.32 11.68 -13 11 C-11.39801112 9.53927468 -9.79332884 8.08150284 -8.1875 6.625 C-7.29417969 5.81289063 -6.40085937 5.00078125 -5.48046875 4.1640625 C-3 2 -3 2 0 0 Z " fill="#2323E8" transform="translate(72,11)"/>
<path d="M0 0 C-0.268125 0.639375 -0.53625 1.27875 -0.8125 1.9375 C-3.41134701 8.63978967 -5.34684528 14.81529811 -6 22 C-8.60018816 18.09971775 -8.15085514 14.52565431 -8 10 C-7.34 10 -6.68 10 -6 10 C-5.896875 8.906875 -5.79375 7.81375 -5.6875 6.6875 C-5 3 -5 3 -3.5625 1.0625 C-2 0 -2 0 0 0 Z " fill="#3435DE" transform="translate(89,56)"/>
<path d="M0 0 C3.63559661 3.43361902 6.36113346 6.7973607 9 11 C8.34 12.32 7.68 13.64 7 15 C7 14.01 7 13.02 7 12 C6.34 12 5.68 12 5 12 C5 11.34 5 10.68 5 10 C4.01 10.33 3.02 10.66 2 11 C1.67 10.34 1.34 9.68 1 9 C1.33 8.01 1.66 7.02 2 6 C1.34 5.34 0.68 4.68 0 4 C0 2.68 0 1.36 0 0 Z " fill="#2E2CE5" transform="translate(168,25)"/>
<path d="M0 0 C0.66 0 1.32 0 2 0 C4.04747183 5.41117554 5.58410304 11.21525141 6 17 C5.34 17.66 4.68 18.32 4 19 C3.32263519 16.96185767 2.65856466 14.91929445 2 12.875 C1.62875 11.73804687 1.2575 10.60109375 0.875 9.4296875 C0.03088051 6.12104059 -0.16509276 3.39471984 0 0 Z " fill="#4746DF" transform="translate(41,102)"/>
<path d="M0 0 C4.67248931 2.82522609 7.65996398 5.67760044 11 10 C6.99133843 10 4.01649801 8.55898289 1 6 C0.0625 2.75 0.0625 2.75 0 0 Z " fill="#3432E6" transform="translate(157,15)"/>
<path d="M0 0 C0.66 0.99 1.32 1.98 2 3 C1.70630173 4.34262065 1.3721042 5.67696283 1 7 C1.33 7.99 1.66 8.98 2 10 C-3.625 12 -3.625 12 -7 12 C-6.57847656 11.38511719 -6.15695313 10.77023438 -5.72265625 10.13671875 C-4.90087891 8.92435547 -4.90087891 8.92435547 -4.0625 7.6875 C-3.51722656 6.88699219 -2.97195312 6.08648437 -2.41015625 5.26171875 C-0.86162674 2.9741857 -0.86162674 2.9741857 0 0 Z " fill="#2826E9" transform="translate(140,84)"/>
<path d="M0 0 C0.52078125 0.15339844 1.0415625 0.30679688 1.578125 0.46484375 C4.63278515 1.13982511 7.63015971 1.34411118 10.75 1.5625 C11.92046875 1.64628906 13.0909375 1.73007813 14.296875 1.81640625 C15.18890625 1.87699219 16.0809375 1.93757813 17 2 C17 2.66 17 3.32 17 4 C14.72942623 4.05398987 12.45848712 4.09278742 10.1875 4.125 C8.29064453 4.15980469 8.29064453 4.15980469 6.35546875 4.1953125 C3 4 3 4 0 2 C0 1.34 0 0.68 0 0 Z " fill="#1413D5" transform="translate(102,103)"/>
<path d="M0 0 C5.47932789 1.54545146 10.11429181 4.15543212 15 7 C15 7.99 15 8.98 15 10 C12.33333333 8.66666667 9.66666667 7.33333333 7 6 C7 5.34 7 4.68 7 4 C5.35 4 3.7 4 2 4 C2 3.34 2 2.68 2 2 C1.01 1.67 0.02 1.34 -1 1 C-0.67 0.67 -0.34 0.34 0 0 Z " fill="#4443DF" transform="translate(139,5)"/>
<path d="M0 0 C0.33 0.66 0.66 1.32 1 2 C1.66 2 2.32 2 3 2 C3 2.66 3 3.32 3 4 C2.01 4 1.02 4 0 4 C0 5.32 0 6.64 0 8 C-1.65 8 -3.3 8 -5 8 C-3.375 2.25 -3.375 2.25 0 0 Z " fill="#2928E2" transform="translate(52,32)"/>
<path d="M0 0 C3.45195767 1.4258086 5.1014256 3.09746334 7.25 6.125 C8.03117187 7.21167969 8.03117187 7.21167969 8.828125 8.3203125 C9.40820312 9.15175781 9.40820312 9.15175781 10 10 C9.01 10 8.02 10 7 10 C5.17578125 8.06640625 5.17578125 8.06640625 3.3125 5.5625 C2.68988281 4.73878906 2.06726563 3.91507813 1.42578125 3.06640625 C0 1 0 1 0 0 Z " fill="#4E4DE3" transform="translate(87,195)"/>
<path d="M0 0 C2.31 1.98 4.62 3.96 7 6 C5.68 7.32 4.36 8.64 3 10 C1.5783681 6.6828589 0.60990891 3.55780196 0 0 Z " fill="#2E2BE5" transform="translate(89,93)"/>
<path d="M0 0 C2 0 2 0 4.4375 2.25 C6.47004286 4.4312655 8.28819148 6.56743 10 9 C7 9 7 9 5.17578125 7.28515625 C4.56089844 6.55167969 3.94601563 5.81820312 3.3125 5.0625 C2.68988281 4.33160156 2.06726563 3.60070312 1.42578125 2.84765625 C0 1 0 1 0 0 Z " fill="#5453DE" transform="translate(101,212)"/>
<path d="M0 0 C0.66 0 1.32 0 2 0 C1.52797514 4.24822374 -0.96655518 6.19989709 -4 9 C-3.67 6.69 -3.34 4.38 -3 2 C-2.01 2 -1.02 2 0 2 C0 1.34 0 0.68 0 0 Z " fill="#3B3BE0" transform="translate(133,197)"/>
<path d="M0 0 C0.33 0.66 0.66 1.32 1 2 C0.01 2.495 0.01 2.495 -1 3 C-1.309375 3.825 -1.61875 4.65 -1.9375 5.5 C-2.288125 6.325 -2.63875 7.15 -3 8 C-3.99 8.33 -4.98 8.66 -6 9 C-6.66 8.34 -7.32 7.68 -8 7 C-5.36 4.69 -2.72 2.38 0 0 Z " fill="#4E4DE4" transform="translate(67,15)"/>
<path d="M0 0 C0.66 0.66 1.32 1.32 2 2 C0.35 4.97 -1.3 7.94 -3 11 C-3.33 11 -3.66 11 -4 11 C-4.33 9.02 -4.66 7.04 -5 5 C-4.01 5 -3.02 5 -2 5 C-2 4.34 -2 3.68 -2 3 C-1.34 3 -0.68 3 0 3 C0 2.01 0 1.02 0 0 Z " fill="#3E3FE1" transform="translate(161,156)"/>
<path d="M0 0 C0.99 0.33 1.98 0.66 3 1 C2.67 3.64 2.34 6.28 2 9 C0.05276405 6.07914607 -0.55175352 4.40667322 -1 1 C-0.67 0.67 -0.34 0.34 0 0 Z " fill="#3235E8" transform="translate(48,123)"/>
<path d="M0 0 C0.99 0.33 1.98 0.66 3 1 C1.63016497 4.16115776 1.0109362 4.9927092 -2 7 C-2.66 6.01 -3.32 5.02 -4 4 C-3.01 4 -2.02 4 -1 4 C-0.67 2.68 -0.34 1.36 0 0 Z " fill="#3535E3" transform="translate(114,218)"/>
<path d="M0 0 C0.99 0.33 1.98 0.66 3 1 C3 1.66 3 2.32 3 3 C3.66 3 4.32 3 5 3 C5 3.99 5 4.98 5 6 C3.68 5.67 2.36 5.34 1 5 C0.67 3.35 0.34 1.7 0 0 Z " fill="#3232E2" transform="translate(84,189)"/>
<path d="M0 0 C0.99 0 1.98 0 3 0 C3 0.99 3 1.98 3 3 C3.66 3 4.32 3 5 3 C5 4.32 5 5.64 5 7 C4.34 7 3.68 7 3 7 C0 2.61538462 0 2.61538462 0 0 Z " fill="#3836E0" transform="translate(60,153)"/>
<path d="M0 0 C0.99 0 1.98 0 3 0 C3 1.65 3 3.3 3 5 C3.66 5.33 4.32 5.66 5 6 C4.01 7.485 4.01 7.485 3 9 C2.01 6.03 1.02 3.06 0 0 Z " fill="#5554E2" transform="translate(50,132)"/>
<path d="M0 0 C2 3 2 3 1.625 5.1875 C1.41875 5.785625 1.2125 6.38375 1 7 C-0.32 7.33 -1.64 7.66 -3 8 C-2.01 5.36 -1.02 2.72 0 0 Z " fill="#3E3BE5" transform="translate(140,84)"/>
</svg>
