<?xml version="1.0" encoding="UTF-8"?>
<svg version="1.1" xmlns="http://www.w3.org/2000/svg" width="512" height="512">
<path d="M0 0 C0.79148437 0.24669434 1.58296875 0.49338867 2.3984375 0.74755859 C18.8980175 6.0468125 32.63327952 14.02837041 46 25 C46.82371094 25.66902344 47.64742187 26.33804687 48.49609375 27.02734375 C54.44608163 32.06988114 59.26781203 37.81847032 64 44 C64.89332031 45.15242188 64.89332031 45.15242188 65.8046875 46.328125 C85.24498414 72.66659141 93.03776139 106.68447498 88.18017578 139.00976562 C87.57759808 142.37395772 86.83960071 145.6874542 86 149 C85.83902832 149.64662598 85.67805664 150.29325195 85.51220703 150.95947266 C76.97610048 183.98051118 56.06989111 210.32862968 26.99414062 227.72851562 C12.4670803 236.08050819 -5.17177507 243.09195721 -22.14990234 243.01699829 C-23.42043457 243.01138885 -24.6909668 243.00577942 -26 243 C-25.9981014 243.54825351 -25.9962028 244.09650702 -25.99424666 244.66137427 C-25.88239139 277.14490498 -25.79658507 309.62838477 -25.74467335 342.11206363 C-25.73841971 346.01115147 -25.73194811 349.91023892 -25.7253418 353.80932617 C-25.72337447 354.9736986 -25.72337447 354.9736986 -25.7213674 356.16159371 C-25.69960223 368.73567046 -25.66017463 381.30963309 -25.61423602 393.8836421 C-25.56750221 406.78275067 -25.53971113 419.68179942 -25.52955753 432.58098918 C-25.52269194 440.54254417 -25.5009968 448.50377658 -25.46041767 456.46523229 C-25.43089919 462.56691651 -25.42771806 468.66832239 -25.43446159 474.77008629 C-25.43308278 477.27553293 -25.42309389 479.78099146 -25.40397263 482.28636551 C-25.37918572 485.70073846 -25.38504373 489.11371843 -25.39872742 492.52812195 C-25.37688111 494.02374547 -25.37688111 494.02374547 -25.35459346 495.54958361 C-25.40553586 500.23503496 -25.46403334 502.30731244 -28.40867329 506.11298847 C-30.90689982 507.93220418 -31.96998167 508.68608908 -35 508.625 C-35.639375 508.63789062 -36.27875 508.65078125 -36.9375 508.6640625 C-40.39227121 507.55173086 -41.78187365 505.8667241 -44 503 C-44.73768658 499.51243245 -44.65317687 496.08154923 -44.60127258 492.52812195 C-44.60554471 491.46212621 -44.60981683 490.39613047 -44.61421841 489.29783183 C-44.62246524 485.7198579 -44.59493359 482.14305179 -44.56762695 478.56518555 C-44.56621686 476.00290454 -44.5670077 473.44062151 -44.56983948 470.87834167 C-44.57097868 465.35887946 -44.55678231 459.83979444 -44.52865028 454.32040977 C-44.48800312 446.34040954 -44.47499186 438.36055218 -44.46871033 430.38045964 C-44.45776902 417.43316484 -44.42449935 404.48602761 -44.37719727 391.53881836 C-44.33129739 378.96232898 -44.2959076 366.38588241 -44.2746582 353.80932617 C-44.27334459 353.03402094 -44.27203097 352.25871571 -44.27067754 351.45991638 C-44.26415232 347.57041129 -44.25783379 343.6809059 -44.25161803 339.79140031 C-44.19979013 307.52748569 -44.1117294 275.26376473 -44 243 C-47.00788879 243.01327991 -47.00788879 243.01327991 -50.01577759 243.02655983 C-73.49972752 242.71221517 -99.03512397 229.30910413 -116 214 C-116.83660156 213.29359375 -117.67320312 212.5871875 -118.53515625 211.859375 C-138.75112285 194.48676692 -151.13077648 170.69276136 -157 145 C-157.36931641 143.44345703 -157.36931641 143.44345703 -157.74609375 141.85546875 C-160.98929215 125.14740529 -160.19452333 106.47671517 -156 90 C-155.75056641 89.01410889 -155.75056641 89.01410889 -155.49609375 88.00830078 C-151.27745201 71.97355603 -144.23176143 57.06996994 -134 44 C-133.32710937 43.13979248 -133.32710937 43.13979248 -132.640625 42.26220703 C-115.73272426 20.98217399 -93.25220595 6.39613233 -67 -1 C-65.88496094 -1.32097656 -64.76992187 -1.64195313 -63.62109375 -1.97265625 C-43.80998313 -6.64816534 -19.40824507 -6.11273076 0 0 Z " fill="#DD342E" transform="translate(291,4)"/>
<path d="M0 0 C5.94 0 11.88 0 18 0 C18.11402745 33.03732281 18.20252992 66.074589 18.25532665 99.11206363 C18.26158029 103.01115147 18.26805189 106.91023892 18.2746582 110.80932617 C18.27596976 111.58557446 18.27728131 112.36182275 18.2786326 113.16159371 C18.30039777 125.73567046 18.33982537 138.30963309 18.38576398 150.8836421 C18.43249779 163.78275067 18.46028887 176.68179942 18.47044247 189.58098918 C18.47730806 197.54254417 18.4990032 205.50377658 18.53958233 213.46523229 C18.56910081 219.56691651 18.57228194 225.66832239 18.56553841 231.77008629 C18.56691722 234.27553293 18.57690611 236.78099146 18.59602737 239.28636551 C18.62081428 242.70073846 18.61495627 246.11371843 18.60127258 249.52812195 C18.61583679 250.5252043 18.630401 251.52228665 18.64540654 252.54958361 C18.59446414 257.23503496 18.53596666 259.30731244 15.59132671 263.11298847 C13.09310018 264.93220418 12.03001833 265.68608908 9 265.625 C8.360625 265.63789062 7.72125 265.65078125 7.0625 265.6640625 C3.60772879 264.55173086 2.21812635 262.8667241 0 260 C-0.73768658 256.51243245 -0.65317687 253.08154923 -0.60127258 249.52812195 C-0.60554471 248.46212621 -0.60981683 247.39613047 -0.61421841 246.29783183 C-0.62246524 242.7198579 -0.59493359 239.14305179 -0.56762695 235.56518555 C-0.56621686 233.00290454 -0.5670077 230.44062151 -0.56983948 227.87834167 C-0.57097868 222.35887946 -0.55678231 216.83979444 -0.52865028 211.32040977 C-0.48800312 203.34040954 -0.47499186 195.36055218 -0.46871033 187.38045964 C-0.45776902 174.43316484 -0.42449935 161.48602761 -0.37719727 148.53881836 C-0.33129739 135.96232898 -0.2959076 123.38588241 -0.2746582 110.80932617 C-0.27334459 110.03402094 -0.27203097 109.25871571 -0.27067754 108.45991638 C-0.26415232 104.57041129 -0.25783379 100.6809059 -0.25161803 96.79140031 C-0.19979012 64.52748464 -0.11135754 32.26376682 0 0 Z " fill="#555F7F" transform="translate(247,247)"/>
<path d="M0 0 C7.2952745 3.77908364 12.10762994 9.01820232 14.734375 16.8984375 C15.43887628 25.13301809 15.2693179 32.77383552 10.734375 39.8984375 C5.44058859 45.99305211 -0.36981996 50.16014349 -8.44921875 51.171875 C-16.18171452 51.52030635 -22.63034465 49.56444994 -28.578125 44.5859375 C-35.26977603 38.26752597 -37.39172997 32.96430886 -37.703125 23.7734375 C-37.75978374 16.4653452 -36.13474893 11.40579755 -31.265625 5.8984375 C-22.49054751 -2.29505591 -11.29719513 -5.08840607 0 0 Z " fill="#F66262" transform="translate(223.265625,64.1015625)"/>
</svg>
